<svg width="1280" height="960" fill="none" xmlns="http://www.w3.org/2000/svg"><g clip-path="url(#a)"><path d="M1280 0H0v960h1280V0Z" fill="#385E77"/><path d="m985.011 567.993 3.249 9.378c4.751 13.715 4.836 29.391-6.446 37.258-8.618 6.009-12.631 15.118-13.684 24.108" stroke="url(#b)" stroke-width="6" stroke-linecap="round" stroke-linejoin="round"/><path d="m1001.89 565 10.64 30.706c6.68 19.264.12 29.21-10.73 39.467-10.856 10.256-13.106 22.856-7.426 29.124" stroke="url(#c)" stroke-width="6" stroke-linecap="round" stroke-linejoin="round"/><path d="m968.602 486.358 44.558-122.615m-10.32 28.76 45.23-125.999c22.88 8.213 29.35 23.945 21.97 50.767m-31.1 81.785 76.9-72.614c15.36 18.258-1.01 45.013-9.25 55.841" stroke="#1E4A66" stroke-width="6" stroke-linecap="round" stroke-linejoin="round"/><path d="m1023.06 381.809 65.82-90.423c18.37 15.505 10.7 47.365 2.46 58.194m-44.32 72.107 85.26-56.391c10.13 15.235-7.11 44.312-17.71 51.727m-64.68 32.95 93.08-47.379c10.82 26.679-10.07 51.687-37.92 60.577-15.68 5.007-104.01 41.026-104.01 41.026 14.05 1.081 31.98-6.011 44.32-1.622 12.35 4.39 84.87 36.219 84.87 36.219-8.64 8.649-33.51 21.082-55.13 8.649l-46.89-27.251m-91.756-49.137L921.64 253.03c24.24-1.859 42.94 11.997 44.756 35.677m15.808 84.646 27.636-101.725c19.27 5.95 23.59 30.806 20.49 44.059" stroke="#1E4A66" stroke-width="6" stroke-linecap="round" stroke-linejoin="round"/><path d="m954.702 363.547 16.792-107.469c19.275 5.95 31.776 37.864 28.686 51.115M976.098 589.51c-9.579 0-19.881-17.33-27.224-24.673-9.93-9.93-24.972-10.249-38.646-10.249-23.633 0-42.792-19.159-42.792-42.792 0-23.634 19.159-42.792 42.792-42.792h23.19" stroke="#1E4A66" stroke-width="6" stroke-linecap="round" stroke-linejoin="round"/><path d="M906.192 552.994c9.712-9.942 12.749-23.355 6.132-35.068-3.78-6.689-9.021-12.737-9.021-12.737" stroke="#1E4A66" stroke-width="6" stroke-linecap="round" stroke-linejoin="round"/><path d="M926.583 554.805c11.265-17.061 9.387-40.246-5.633-55.266-12.351-12.352-30.226-15.815-45.675-10.39" stroke="#1E4A66" stroke-width="6" stroke-linecap="round" stroke-linejoin="round"/><path d="M889.51 530.86c-5.398 0-9.774-4.375-9.774-9.773s4.376-9.774 9.774-9.774c5.398 0 9.773 4.376 9.773 9.774 0 5.398-4.375 9.773-9.773 9.773Zm-203.936-76.449c-4.29 3.276-10.424 2.453-13.699-1.837 3.625-2.074 3.625-6.074.625-8.074 4.29-3.276 12.725-10.291 16-6 3.275 4.29 1.364 12.636-2.926 15.911Z" fill="#1E4A66"/><path d="M1011.31 376.651c30.73 11.034 46.3 47.855 34.59 108.085m-50.552-63.624c22.312 8.008 39.152 48.334 22.442 75.517m-84.448-130.832c27.908-4.672 54.433 3.277 66.243 33.222m-13.878 39.97c-4.978-32.037-36.703-41.557-51.623-37.993" stroke="#1E4A66" stroke-width="6" stroke-linecap="round" stroke-linejoin="round"/><path d="M988.506 629.82c-7.936 4.822-9.614 12.831-9.98 23.71" stroke="url(#d)" stroke-width="6" stroke-linecap="round" stroke-linejoin="round"/><path d="M1072.12 546.777c-.75 4.744-6.74 19.414-23.04 10.703-16.3-8.71-35.46-23.197-35.46-23.197m33.79 24.126c-7.6 7.148-16.37 14.94-30.93 3.044-14.56-11.897-24.836-21.969-24.836-21.969m-121.81-14.637c-.739-16.513 43.131-9.366 38.201-34.258m-24.891 31.534 1.209 22.176" stroke="#1E4A66" stroke-width="6" stroke-linecap="round" stroke-linejoin="round"/><path d="M929.52 734.05s5.213-.974 30.678-7.557c25.465-6.585 38.233-20.368 42.822-26.057l3.92-2.775c-.33.537 20.03-15.822 20.03-15.822-6.61-10.33-21.12-7.756-33.926-1.925-12.809 5.832-16.975 9.261-41.831 20.283-48.846-14.382-77.817-2.921-104.774 41.113-16.07 26.25-42.801 69.913-62.089 101.419" stroke="url(#e)" stroke-width="6" stroke-linecap="round" stroke-linejoin="round"/><path d="m1026.97 681.838 23.59-20.004 20.76-27.417c12.01-12.975 21.92-9.129 27.08-6.704l-29.45 44.467s-23.85 25.872-31.41 35.191c-14.08 17.365-24.4 23.889-44.733 28.779-26.869 6.463-54.534 13.118-63.634 15.306-9.101 2.189-25.913 6.9-35.458 22.491-7.507 12.264-21.04 46.903-29.606 69.685" stroke="url(#f)" stroke-width="6" stroke-linecap="round" stroke-linejoin="round"/><path d="M1015.58 675.666c-14.21 6.576-18.136 20.47-12.36 24.45M697.836 405.447c-21.965.337-44.807 10.006-55.154 22.71m55.786 6.582S685.775 428.914 655.5 453m23 103.707c8.5 3.293 17.291 1.823 25.824 0M638.357 377.33c-39.356 7.315-4.987 83.186-114.036 125.557-93.885 36.48-58.405 147.798-175.789 168.593" stroke="#1E4A66" stroke-width="6" stroke-linecap="round" stroke-linejoin="round"/><path d="M570.226 819.567s-65.627-145.923-161.365-145.923c-74.669 0-127.091 52.859-136.03 152.482" stroke="url(#g)" stroke-width="6" stroke-miterlimit="10"/><path d="M519.399 504.939c-106.618 38.797-150.111 42.037-214.533 149.788-44.876 75.06-118.242 93.794-175.866 94.617" stroke="url(#h)" stroke-width="6" stroke-miterlimit="10"/><path d="M519.399 555.963c17.911 19.281 69.524 68.293 138.984 72.26 25.402 0 39.691-21.026 36.118-35.309-1.593-6.371-2.61-14.892 6.345-19.023 8.956-4.131 3.445-17.215 3.445-17.215 4.685-.89 13.942-2.427 13.677-10.984-.698-22.508 14.579-25.514 21.342-28.146 13.589-5.288 18.448-13.382 8.141-22.866-11.265-10.365-32.205-30.579-30.258-54.743.991-12.312 5.284-18.253 5.978-29.879 1.387-23.253-5.664-43.543-5.664-43.543" stroke="#1E4A66" stroke-width="6" stroke-linecap="round" stroke-linejoin="round"/><path d="M688.24 437.822c4.254 4.448 4.053 13.153-1.795 17.365-6.589 4.746-13.077 0-13.077 0m-41.5-77.857c-90.359 3.046-57.315 61.342-137.044 92.576-29.008 11.364-73.654 25.9-114.931 38.277m-72.456 174.112c94.523-31.481 89.194-134.646 139.505-151.401" stroke="#1E4A66" stroke-width="6" stroke-linecap="round" stroke-linejoin="round"/><path d="M153.873 725.552c37.767-3.44 78.175-33.392 99.27-71.727 50.389-91.571 83.377-131.266 126.75-145.641" stroke="url(#i)" stroke-width="6" stroke-miterlimit="10"/><path d="M458.838 685.903c74.668 35.543 119.077 45.056 119.077 45.056 0-55.818 17.175-78.169 37.731-110.306" stroke="#1E4A66" stroke-width="6" stroke-linecap="round" stroke-linejoin="round"/><path d="m577.796 730.959 81.108 81.108" stroke="url(#j)" stroke-width="6" stroke-miterlimit="10"/><path d="M348.532 671.48C208.85 696.116 188.479 816.393 188.479 816.393" stroke="url(#k)" stroke-width="6" stroke-miterlimit="10"/><path d="M240.011 823.645c-.615-32.883 25.145-126.738 98.4-154.645" stroke="url(#l)" stroke-width="6" stroke-linecap="round" stroke-linejoin="round"/><path d="M310.681 825.044c0-32.372 22.938-116.795 96.792-116.795 73.853 0 113.007 110.785 113.007 110.785" stroke="url(#m)" stroke-width="6" stroke-linecap="round" stroke-linejoin="round"/><path d="M559.412 374.085c-44 .583-76.782 60.561-76.782 60.561" stroke="#1E4A66" stroke-width="6" stroke-linecap="round" stroke-linejoin="round"/><path d="M330.463 436.864c-70.657-70.657-70.657-185.214 0-255.871 70.657-70.657 185.215-70.657 255.872 0l173.452 176.362c-30.142 4.616-161.667 43.996-254.054.233-20.916 97.95-41.879 125.016-125.618 150.244 11.673-44.746-49.652-70.968-49.652-70.968Z" fill="#385E77" stroke="#1E4A66" stroke-width="6" stroke-linecap="round" stroke-linejoin="round"/><path d="M640.62 239.342c-25.626-12.425-38.05 13.201-39.604 35.721 27.956 8.543 58.242 14.755 39.604-35.721Z" stroke="#1E4A66" stroke-width="6" stroke-linecap="round" stroke-linejoin="round"/><path d="M601.016 275.063c.629-11.491 9.915-21.45 21.407-20.822 11.491.629 20.297 10.453 19.669 21.944m-80.002-115.56c-6.907 126.913-90.877 210.629-231.627 276.239m315.903-175.838 99.138 99.138m-119.02-138.348c-28.185-3.891-43.021 10.966-46.651 50.642M427.476 675.154c-37.781-7.929-80.803-10.83-120.039 11.466" stroke="#1E4A66" stroke-width="6" stroke-linecap="round" stroke-linejoin="round"/><path d="M786.156 101.276h2.78l-5.9 7.53v8.47h-2.35v-8.5l-5.9-7.53h2.81l4.28 5.51 4.33-5.51m4.59.03h2.29v13.9h7.19v2.1h-9.48v-16Zm11.6 16h2.29v-16h-2.29v16Zm13.87-14.09a6.211 6.211 0 0 0-4.51 1.72 5.86 5.86 0 0 0-1.77 4.38 5.7196 5.7196 0 0 0 1.77 4.3c2.515 2.315 6.385 2.315 8.9 0a5.8654 5.8654 0 0 0 1.79-4.36 5.7178 5.7178 0 0 0-1.79-4.27 6.0609 6.0609 0 0 0-4.39-1.77Zm-.1-2.17c2.288-.072 4.51.774 6.17 2.35a7.7488 7.7488 0 0 1 2.47 5.88 7.6505 7.6505 0 0 1-2.49 5.85 8.824 8.824 0 0 1-6.27 2.32 8.31 8.31 0 0 1-6-2.32 7.7383 7.7383 0 0 1-2.45-5.82 7.8794 7.8794 0 0 1 2.43-5.92 8.418 8.418 0 0 1 6.12-2.35m16.11 2.27h-2.37v5h2.5a3.242 3.242 0 0 0 2.16-.65c.52-.486.795-1.18.75-1.89 0-1.66-1.01-2.46-3.04-2.46Zm-4.66 14v-16h5.07a5.2487 5.2487 0 0 1 3.65 1.23c.92.852 1.418 2.067 1.36 3.32a4.375 4.375 0 0 1-.7 2.47 3.9183 3.9183 0 0 1-1.91 1.56 9.5916 9.5916 0 0 1-3.47.42h-1.69v7h-2.31Zm16.7-14h-2.37v5h2.5c.772.049 1.535-.182 2.15-.65.526-.483.806-1.177.76-1.89 0-1.64-1-2.46-3-2.46h-.04Zm-4.7 14v-16h5.07a5.2487 5.2487 0 0 1 3.65 1.23 4.302 4.302 0 0 1 1.36 3.32c.014.874-.23 1.733-.7 2.47a3.9183 3.9183 0 0 1-1.91 1.56 9.5916 9.5916 0 0 1-3.47.42h-1.69v7h-2.31Zm12.22 0h2.28v-16h-2.28v16Zm5.92-16h2.29v13.9h7.2v2.1h-9.49v-16Zm20.05 9.18-2.58-5.79-2.39 5.79h4.97Zm-3.36-9.3h1.61l7.16 16.12h-2.34l-2.13-4.73h-6.82l-2 4.73h-2.31l6.87-16.07m14.54 9.33-1.74-1.06a7.7307 7.7307 0 0 1-2.33-2 3.7075 3.7075 0 0 1-.69-2.22 3.9201 3.9201 0 0 1 1.31-3.07 4.9106 4.9106 0 0 1 3.4-1.17 6.398 6.398 0 0 1 3.67 1.12v2.6a5.291 5.291 0 0 0-3.71-1.67 3.1607 3.1607 0 0 0-1.85.52c-.45.292-.722.793-.72 1.33.009.499.197.978.53 1.35.5.521 1.077.963 1.71 1.31l1.75 1c1.953 1.16 2.927 2.64 2.92 4.44a4.09 4.09 0 0 1-1.29 3.13 4.689 4.689 0 0 1-3.34 1.2 7.0005 7.0005 0 0 1-4.31-1.46v-2.91a5.3595 5.3595 0 0 0 4.29 2.35c.649.021 1.285-.192 1.79-.6.458-.362.72-.917.71-1.5 0-.973-.7-1.893-2.1-2.76m5.5-9.19h13.35v2h-5.57v14h-2.3v-14h-5.48v-2Zm26.73 0h2.3v9c.032.935-.059 1.869-.27 2.78a5.976 5.976 0 0 1-.66 1.56c-.274.422-.611.8-1 1.12a7.3285 7.3285 0 0 1-5 1.64 7.4024 7.4024 0 0 1-5-1.63 4.729 4.729 0 0 1-1-1.13 5.4983 5.4983 0 0 1-.65-1.52c-.206-.932-.293-1.886-.26-2.84v-9h2.3v9.02a6.7953 6.7953 0 0 0 .51 3.14c.374.614.92 1.104 1.57 1.41a5.369 5.369 0 0 0 2.48.53c1.198.056 2.376-.32 3.32-1.06.448-.353.793-.819 1-1.35.245-.868.346-1.77.3-2.67v-9m4.26 0h13.36v2h-5.58v14h-2.3v-14h-5.48v-2Zm24.65 0h2.86l-6.93 7.59 8.63 8.39h-3.12l-8.17-7.89v7.91h-2.29v-16h2.29v7.31l6.73-7.31Zm6.44 16h2.29v-16h-2.29v16Zm18.63-16h2.17v16h-2l-10.69-12.31v12.31h-2.15v-16h1.86l10.77 12.42v-12.42m4.36 0h13.36v2h-5.57v14h-2.3v-14h-5.49v-2Zm22.034 1.91a6.2336 6.2336 0 0 0-4.514 1.72 5.86 5.86 0 0 0-1.77 4.38 5.7196 5.7196 0 0 0 1.77 4.3c2.515 2.315 6.384 2.315 8.904 0 1.18-1.139 1.82-2.72 1.79-4.36.03-1.612-.62-3.163-1.79-4.27-1.17-1.161-2.75-1.799-4.39-1.77Zm-.1-2.17c2.28-.072 4.51.774 6.17 2.35 1.62 1.515 2.53 3.656 2.47 5.88.05 2.219-.85 4.354-2.49 5.85-1.71 1.566-3.96 2.399-6.27 2.32-2.234.062-4.396-.773-6.004-2.32a7.6913 7.6913 0 0 1-2.4-5.81 7.8698 7.8698 0 0 1 2.42-5.92 8.421 8.421 0 0 1 6.124-2.35m11.53.26h2.29v13.9h7.19v2.1h-9.48v-16Zm20.04 9.18-2.58-5.79-2.39 5.79h4.97Zm-3.36-9.3h1.61l7.16 16.12h-2.33l-2.14-4.73h-6.82l-2 4.73h-2.35l6.83-16.12m21.31.12h2.3v9c.03.935-.06 1.869-.27 2.78-.15.549-.37 1.074-.66 1.56-.28.422-.62.8-1 1.12-1.41 1.147-3.19 1.731-5 1.64-1.81.085-3.59-.494-5-1.63-.4-.321-.73-.702-1-1.13-.3-.471-.52-.983-.65-1.52-.21-.932-.3-1.886-.26-2.84v-9h2.3v9.02c-.09 1.072.09 2.148.51 3.14.37.614.92 1.104 1.57 1.41.77.373 1.63.555 2.49.53 1.19.054 2.36-.322 3.31-1.06.44-.353.79-.819 1-1.35.24-.868.34-1.77.3-2.67v-9m4.26 0h13.35v2h-5.57v14h-2.29v-14h-5.48v-2m21.72 9.18-2.58-5.79-2.39 5.79h4.97Zm-3.36-9.3h1.6l7.17 16.12h-2.34l-2.13-4.73h-6.82l-2 4.73h-2.36l6.87-16.07m19.67.07h2.86l-6.94 7.59 8.64 8.41h-3.1l-8.17-7.89v7.89h-2.29v-16h2.29v7.31l6.73-7.31m17.52 0h2.3v9c.03.935-.06 1.869-.27 2.78-.15.549-.37 1.074-.66 1.56-.28.42-.62.797-1 1.12-2.98 2.194-7.03 2.194-10 0-.39-.324-.73-.705-1-1.13-.29-.475-.51-.986-.65-1.52-.2-.933-.29-1.887-.25-2.84v-9h2.3v9.03c-.08 1.072.09 2.148.51 3.14.37.618.91 1.109 1.57 1.41.77.372 1.62.554 2.48.53 1.19.056 2.37-.32 3.32-1.06.44-.356.79-.821 1-1.35.24-.868.34-1.77.3-2.67v-9m18.31 0h2.18v16h-2l-10.69-12.31v12.31h-2.15v-16h1.85l10.78 12.42v-12.42m4.36 0h13.33v2h-5.57v14h-2.3v-14h-5.48v-2m21.75 9.18-2.58-5.79-2.39 5.79h4.97Zm-3.36-9.3h1.6l7.17 16.12h-2.34l-2.13-4.73h-6.82l-2 4.73h-2.35l6.83-16.12m-341.364 37.5-1.74-1.06a7.9894 7.9894 0 0 1-2.33-2 3.7599 3.7599 0 0 1-.69-2.23 4.0002 4.0002 0 0 1 1.31-3.07 4.919 4.919 0 0 1 3.4-1.18 6.4765 6.4765 0 0 1 3.68 1.13v2.59a5.3603 5.3603 0 0 0-3.72-1.66 3.0703 3.0703 0 0 0-1.85.52c-.446.296-.716.795-.72 1.33.004.497.193.975.53 1.34.497.528 1.074.973 1.71 1.32l1.75 1c1.947 1.167 2.92 2.65 2.92 4.45a4.1285 4.1285 0 0 1-1.28 3.13 4.7311 4.7311 0 0 1-3.35 1.2 7.0028 7.0028 0 0 1-4.26-1.39v-2.91a5.3595 5.3595 0 0 0 4.29 2.35c.647.019 1.281-.189 1.79-.59.456-.368.717-.924.71-1.51 0-.973-.7-1.893-2.1-2.76m5.45-9.31h13.36v2h-5.58v14h-2.3v-14h-5.48v-2Zm26.73.02h2.3v9.07c.032.935-.059 1.869-.27 2.78a5.678 5.678 0 0 1-.66 1.56c-.274.422-.611.8-1 1.12a7.3285 7.3285 0 0 1-5 1.64 7.4417 7.4417 0 0 1-5-1.63 4.729 4.729 0 0 1-1-1.13 5.8062 5.8062 0 0 1-.65-1.52c-.205-.932-.292-1.886-.26-2.84v-9h2.3v9.07c-.08 1.072.095 2.148.51 3.14.377.611.922 1.1 1.57 1.41.776.373 1.63.555 2.49.53a4.9971 4.9971 0 0 0 3.31-1.06c.444-.357.788-.821 1-1.35.235-.869.333-1.77.29-2.67v-9.07m10.81 1.98h-2.86v11.88h2.93c.893.027 1.785-.05 2.66-.23a6.459 6.459 0 0 0 1.59-.6c.424-.24.814-.536 1.16-.88a5.929 5.929 0 0 0 1.69-4.34 5.4805 5.4805 0 0 0-1.74-4.2 5.3576 5.3576 0 0 0-1.47-1 6.2548 6.2548 0 0 0-1.57-.52c-.792-.101-1.591-.145-2.39-.13v.02Zm-5.15 13.93v-16h5.39c1.774-.072 3.541.27 5.16 1a7.3827 7.3827 0 0 1 3 2.87 8.0002 8.0002 0 0 1 1.12 4.15c-.003 3.275-2.028 6.208-5.09 7.37a8.47 8.47 0 0 1-1.66.47c-.956.102-1.918.142-2.88.12h-5.06m17.66-15.94h9.07v2h-6.78v4.91h6.55v2h-6.55v5h7v2h-9.29v-16m24.51.09h2.18v16h-2l-10.69-12.31v12.31h-2.1v-16h1.86l10.77 12.41v-12.41m4.31-.02h13.35v2h-5.57v14h-2.3v-14h-5.48v-2Zm15.61.02h9.06v2h-6.77v4.91h6.54v2h-6.54v5h7v2h-9.28v-16m23.37.09h2.76l-6.39 7.71 6.84 8.27h-2.76l-5.45-6.62-5.49 6.62h-2.8l6.88-8.27-6.39-7.71h2.8l5 6.1 5-6.1Zm13.58 9.21-2.58-5.79-2.39 5.79h4.97Zm-3.37-9.3h1.61l7.17 16.07h-2.34l-2.13-4.74h-6.82l-2 4.74h-2.35l6.86-16.07Zm23.34.09h2.13v16h-2.3v-12.45l-4.91 6.17h-.4l-5-6.17v12.43h-2.29v-16h2.17l5.31 6.56 5.28-6.56m5.68.02h9.06v2h-6.77v4.91h6.56v2h-6.55v5h7v2h-9.28v-16m24.49.09h2.18v16h-2l-10.69-12.31v12.31h-2.15v-16h1.85l10.78 12.41v-12.41m9.684 9.29-1.74-1.06c-.9-.51-1.69-1.189-2.33-2-.47-.649-.71-1.432-.69-2.23-.05-1.167.43-2.293 1.31-3.07.94-.809 2.15-1.23 3.4-1.18 1.31-.005 2.59.389 3.68 1.13v2.59c-.98-1.024-2.32-1.62-3.73-1.66-.66-.026-1.3.156-1.84.52-.45.292-.73.793-.72 1.33 0 .497.19.975.53 1.34.49.53 1.07.976 1.71 1.32l1.75 1c1.95 1.167 2.92 2.65 2.92 4.45.04 1.178-.43 2.317-1.28 3.13-.92.821-2.12 1.251-3.35 1.2-1.57.005-3.09-.509-4.32-1.46v-2.91a5.3792 5.3792 0 0 0 4.29 2.35c.64.023 1.28-.186 1.79-.59.46-.364.72-.922.72-1.51 0-.973-.7-1.893-2.1-2.76m19.56-9.22h2.18v16h-2l-10.69-12.31v12.31h-2.15v-16h1.86l10.77 12.41v-12.41m13.96-3.54c.6.005 1.09.495 1.1 1.1-.01.596-.49 1.078-1.09 1.075-.59-.003-1.07-.482-1.07-1.075-.02-.289.1-.57.31-.77.19-.212.46-.332.75-.33Zm.2 12.75-2.58-5.79-2.39 5.79h4.97Zm-4.64-12.75c.61 0 1.1.491 1.11 1.1.01.291-.11.572-.32.77-.2.208-.47.325-.75.32-.3.011-.59-.11-.78-.33-.21-.203-.33-.481-.32-.77-.01-.29.11-.568.32-.77.19-.206.46-.322.74-.32Zm1.28 3.45h1.6l7.17 16.07h-2.31l-2.1-4.74h-6.82l-2 4.74h-2.38l6.87-16.07m23.33.09h2.13v16h-2.29v-12.45l-4.92 6.17h-.42l-5-6.17v12.43h-2.29v-16h2.16l5.32 6.56 5.28-6.56m18.4.02h2.18v16h-2l-10.69-12.31v12.31h-2.15v-16h1.85l10.78 12.41v-12.41m10.89 2.03h-2.86v11.88h2.93c.89.027 1.79-.05 2.67-.23.55-.129 1.08-.331 1.58-.6.42-.238.81-.534 1.16-.88 1.12-1.143 1.72-2.691 1.69-4.29.07-2.217-1.19-4.264-3.2-5.19-.5-.239-1.03-.414-1.57-.52-.8-.101-1.6-.145-2.4-.13v-.04Zm-5.14 13.93v-16h5.38c1.77-.075 3.54.268 5.16 1 1.25.647 2.29 1.644 3 2.87.74 1.255 1.13 2.69 1.12 4.15 0 1.051-.21 2.092-.61 3.06-.41.973-1.01 1.852-1.77 2.58-.78.761-1.7 1.35-2.71 1.73-.54.214-1.1.372-1.66.47-.96.103-1.92.143-2.88.12h-5m17.61-15.94h9.06v2h-6.79v4.91h6.54v2h-6.54v5h7v2h-9.28v-16m24.52.09h2.17v16h-2l-10.68-12.31v12.31h-2.15v-16h1.85l10.78 12.41v-12.41" fill="#1A4159"/><text transform="translate(902 195)" fill="#1a4159" font-family="ArialMT, Arial" font-size="21.33" letter-spacing=".06em">
            <tspan x="0" y="0">@VERSION</tspan>
        </text></g><defs><linearGradient id="b" x1="995.488" y1="569.481" x2="961.65" y2="639.188" gradientUnits="userSpaceOnUse"><stop offset=".343" stop-color="#1E4A66"/><stop offset="1" stop-color="#385E77"/></linearGradient><linearGradient id="c" x1="1019.77" y1="570.079" x2="976.5" y2="659.218" gradientUnits="userSpaceOnUse"><stop offset=".343" stop-color="#1E4A66"/><stop offset="1" stop-color="#385E77"/></linearGradient><linearGradient id="d" x1="989.203" y1="626.561" x2="975.158" y2="655.493" gradientUnits="userSpaceOnUse"><stop offset=".396" stop-color="#2B546E"/><stop offset="1" stop-color="#385E77"/></linearGradient><linearGradient id="e" x1="905.661" y1="672.103" x2="905.661" y2="845.439" gradientUnits="userSpaceOnUse"><stop offset=".33" stop-color="#1E4A66"/><stop offset="1" stop-color="#385E77"/></linearGradient><linearGradient id="f" x1="981.257" y1="622.53" x2="981.257" y2="846.343" gradientUnits="userSpaceOnUse"><stop offset=".509" stop-color="#1E4A66"/><stop offset="1" stop-color="#385E77"/></linearGradient><linearGradient id="g" x1="421.416" y1="670.947" x2="421.416" y2="826.366" gradientUnits="userSpaceOnUse"><stop stop-color="#1E4A66"/><stop offset="1" stop-color="#385E77"/></linearGradient><linearGradient id="h" x1="538.58" y1="565.601" x2="112.509" y2="699.424" gradientUnits="userSpaceOnUse"><stop offset=".35" stop-color="#1E4A66"/><stop offset="1" stop-color="#385E77"/></linearGradient><linearGradient id="i" x1="401.229" y1="575.901" x2="132.76" y2="660.3" gradientUnits="userSpaceOnUse"><stop offset=".368" stop-color="#1E4A66"/><stop offset="1" stop-color="#385E77"/></linearGradient><linearGradient id="j" x1="618.35" y1="729.043" x2="618.35" y2="813.983" gradientUnits="userSpaceOnUse"><stop stop-color="#1E4A66"/><stop offset="1" stop-color="#385E77"/></linearGradient><linearGradient id="k" x1="267.404" y1="668.819" x2="267.404" y2="816.842" gradientUnits="userSpaceOnUse"><stop stop-color="#1E4A66"/><stop offset="1" stop-color="#385E77"/></linearGradient><linearGradient id="l" x1="289.205" y1="666.298" x2="289.205" y2="826.347" gradientUnits="userSpaceOnUse"><stop stop-color="#1E4A66"/><stop offset="1" stop-color="#385E77"/></linearGradient><linearGradient id="m" x1="415.581" y1="705.54" x2="415.581" y2="827.752" gradientUnits="userSpaceOnUse"><stop stop-color="#1E4A66"/><stop offset="1" stop-color="#385E77"/></linearGradient><clipPath id="a"><path fill="#fff" d="M0 0h1280v960H0z"/></clipPath></defs></svg>